# xmcd
#
# Track frame offsets:
#	150
#	14494
#	27655
#	43144
#	61025
#	76272
#	92329
#	109368
#	124045
#	139520
#	153237
#	169311
#	201081
#	217080
#
# Disc length: 3152 seconds
#
# Revision: 1
# Processed by: cddbd v1.5.2PL0 Copyright (c) Steve Scherf et al.
# Submitted via: audiograbber 1.83.01
#
DISCID=bd0c4e0e
DTITLE=Dierks Bentley - Home (Limited Edition)
DYEAR=2012
DGENRE=Country
TTITLE0=Am I the Only One
TTITLE1=Gonna Die Young
TTITLE2=Tip It On Back
TTITLE3=Home
TTITLE4=Diamonds Make Babies
TTITLE5=In My Head
TTITLE6=Breathe You In
TTITLE7=The Woods
TTITLE8=When You Gonna Come Around (feat. Karen Fairchild)
TTITLE9=5-1-5-0
TTITLE10=Heart Of A Lonely Girl
TTITLE11=Thinking Of You
TTITLE12=Cold Cans (bonus track)
TTITLE13=Line #7 (bonus track)
EXTD=
EXTT0=
EXTT1=
EXTT2=
EXTT3=
EXTT4=
EXTT5=
EXTT6=
EXTT7=
EXTT8=
EXTT9=
EXTT10=
EXTT11=
EXTT12=
EXTT13=
PLAYORDER=
